<svg width="1050" height="592" viewBox="0 0 1050 592" xmlns="http://www.w3.org/2000/svg">

 <defs>
    <style type="text/css">


      @import url('https://fonts.googleapis.com/css2?family=Inter:ital,wght@0,400;0,700;1,400&amp;display=swap');
      text { font-family: 'Inter', sans-serif; }
   
</style>
  </defs>

  <rect width="1050" height="592" rx="40" fill="#101726"/>
  <rect y="112" width="18" height="170" fill="#22D3EE"/>
  
  <text fill="#22D3EE" xml:space="preserve" font-size="28" font-weight="700"><tspan id="brand-name" x="760" y="60">LMNAs</tspan></text>
  <text fill="#FFFFFF" xml:space="preserve" font-size="16" font-weight="400"><tspan id="brand-tagline" x="760" y="88">Modern ERP. Modular Intelligence</tspan></text>

  <text fill="#FFFFFF" xml:space="preserve" font-size="50" font-weight="700">
    <tspan id="title-1" x="105" y="155">Template For</tspan>
    <tspan id="title-2" x="105" y="220">Prompting AI</tspan>
  </text> 
  <text fill="#22D3EE" xml:space="preserve" font-size="50" font-weight="700">
    <tspan id="title-3" x="105" y="285">Or Just Chatting ?</tspan>
  </text>
 <!-- Sub Text -->
  <text x="105" y="360"
        font-family="Segoe UI, Arial, sans-serif"
        font-size="30"
        fill="#E8E8E8"
        font-weight="700"> <tspan id="subtitle-1">
        Not</tspan> <tspan id="subtitle-highlight" fill="#33D4F0" font-weight="700">one AI</tspan> <tspan id="subtitle-2"> the correct AI.</tspan>
  </text>

  <text x="105" y="395"
        font-family="Segoe UI, Arial, sans-serif"
        font-size="20"
        fill="#C9D2DA"
        font-style="italic"><tspan id="slogan-main">
        Use the right AI for the right</tspan> <tspan id="slogan-highlight" fill="#33D4F0">business task</tspan>
  </text>
  <!-- <text fill="#FFFFFF" xml:space="preserve" font-size="32" font-weight="700"><tspan id="subtitle-1" x="105" y="360">Prompt </tspan></text>
  <text fill="#22D3EE" xml:space="preserve" font-size="32" font-weight="700"><tspan id="subtitle-highlight" x="105" y="380">Engineering</tspan></text>
  <text fill="#FFFFFF" xml:space="preserve" font-size="32" font-weight="700"><tspan id="subtitle-2" x="378" y="405"> Drives Real Results</tspan></text> -->

  
 
  <!-- <rect x="85" y="320" width="80" height="80" rx="15" transform="rotate(-15 50 650)" stroke="#202941" stroke-width="2"/>
  <rect x="55" y="300" width="80" height="80" rx="15" transform="rotate(5, 142, 938)" stroke="#202941" stroke-width="2"/> -->
 <!-- Decorative Bottom Left Shapes -->
  <rect x="55" y="450" width="80" height="80" rx="18" ry="18"
        fill="none" stroke="#2EC7E6" stroke-width="2"
        transform="rotate(-25 95 490)" opacity="0.25"/>

  <rect x="85" y="470" width="80" height="80" rx="18" ry="18"
        fill="none" stroke="#2EC7E6" stroke-width="2"
        transform="rotate(15 125 510)" opacity="0.25"/>
  <rect x="680" y="420" width="360" height="108" rx="0" fill="#202941"/>
<path 
  d="M 680,420 
     H 680
     a 8,8 0 0 0 -8,8
     v 92 
     a 8,8 0 0 0 8,8 
     h 10 
     V 420 
     Z" 
  fill="#22D3EE" 
/>

  <image id="agent-logo" x="700" y="440" width="65" height="65" href="" />
  <text fill="#FFFFFF" xml:space="preserve" font-size="28" font-weight="700"><tspan id="product-name" x="780" y="470">LENS LUMI</tspan></text>
  <text fill="#FFFFFF" xml:space="preserve" font-size="16" font-weight="400"><tspan id="product-description" x="780" y="498">Your Intelligent ERP Agent</tspan></text>
</svg>