<svg width="800" height="800" viewBox="0 0 800 800" fill="none" xmlns="http://www.w3.org/2000/svg">
  <defs>
    <style type="text/css">


      @import url('https://fonts.googleapis.com/css2?family=Inter:ital,wght@0,400;0,700;1,400&amp;display=swap');
      text { font-family: 'Inter', sans-serif; }
   
</style>
  </defs>

  <rect width="800" height="800" rx="40" fill="#101726"/>
  <rect y="168" width="12" height="236" fill="#22D3EE"/>
  
  <text fill="#22D3EE" xml:space="preserve" font-size="28" font-weight="700"><tspan id="brand-name" x="500" y="82">LMNAs</tspan></text>
  <text fill="#FFFFFF" xml:space="preserve" font-size="16" font-weight="400"><tspan id="brand-tagline" x="500" y="108">Modern ERP. Modular Intelligence</tspan></text>

  <text fill="#FFFFFF" xml:space="preserve" font-size="58" font-weight="700">
    <tspan id="title-1" x="45" y="235">Are You</tspan>
    <tspan id="title-2" x="45" y="305">Prompting AI</tspan>
  </text> 
  <text fill="#22D3EE" xml:space="preserve" font-size="58" font-weight="700">
    <tspan id="title-3" x="45" y="380">Or Just Chatting ?</tspan>
  </text>

  <text fill="#FFFFFF" xml:space="preserve" font-size="32" font-weight="700"><tspan id="subtitle-1" x="55" y="485">Prompt </tspan></text>
  <text fill="#22D3EE" xml:space="preserve" font-size="32" font-weight="700"><tspan id="subtitle-highlight" x="180" y="485">Engineering</tspan></text>
  <text fill="#FFFFFF" xml:space="preserve" font-size="32" font-weight="700"><tspan id="subtitle-2" x="378" y="485"> Drives Real Results</tspan></text>

  <text fill="#FFFFFF" xml:space="preserve" font-size="24" font-weight="400" font-style="italic"><tspan id="slogan-main" x="55" y="525">AI gives answers. Structured prompts create </tspan></text>
  <text fill="#22D3EE" xml:space="preserve" font-size="24" font-weight="400" font-style="italic"><tspan id="slogan-highlight" x="575" y="525">outcomes.</tspan></text>
 
  <rect x="50" y="650" width="80" height="80" rx="15" transform="rotate(-15 50 650)" stroke="#202941" stroke-width="2"/>
  <rect x="80" y="670" width="80" height="80" rx="15" transform="rotate(5, 142, 938)" stroke="#202941" stroke-width="2"/>

  <rect x="442" y="628" width="358" height="118" rx="0" fill="#202941"/>
<path 
  d="M 458,628 
     H 448
     a 8,8 0 0 0 -8,8
     v 102 
     a 8,8 0 0 0 8,8 
     h 10 
     V 628 
     Z" 
  fill="#22D3EE" 
/>

  <image id="agent-logo" x="473" y="652" width="53" height="53" href="" />
  <text fill="#FFFFFF" xml:space="preserve" font-size="28" font-weight="700"><tspan id="product-name" x="535" y="682">LENS LUMI</tspan></text>
  <text fill="#FFFFFF" xml:space="preserve" font-size="16" font-weight="400"><tspan id="product-description" x="535" y="708">Your Intelligent ERP Agent</tspan></text>
</svg>